# xmcd
#
# Track frame offsets:
#	150
#	16073
#	33232
#	50645
#	69637
#	88971
#
# Disc length: 1455 seconds
#
# Revision: 1
# Processed by: cddbd v1.4PL0 Copyright (c) Steve Scherf et al.
# Submitted via: CDmax 1.8
#
DISCID=4905ad06
DTITLE=Indigenous - Fistful of Dirt EP
DYEAR=2002
DGENRE=Blues
TTITLE0=Feel Alright Now
TTITLE1=You've Got Something
TTITLE2=I'm Still Here.
TTITLE3=Give Me Your Time.
TTITLE4=Where Are You.
TTITLE5=Need Some Sleep
EXTD=
EXTT0=
EXTT1=
EXTT2=
EXTT3=
EXTT4=
EXTT5=
PLAYORDER=
